<?xml version="1.0" encoding="utf-8"?>
<!-- Generator: Adobe Illustrator 17.1.0, SVG Export Plug-In . SVG Version: 6.00 Build 0)  -->
<!DOCTYPE svg PUBLIC "-//W3C//DTD SVG 1.1//EN" "http://www.w3.org/Graphics/SVG/1.1/DTD/svg11.dtd">
<svg version="1.1" id="Layer_1" xmlns="http://www.w3.org/2000/svg" xmlns:xlink="http://www.w3.org/1999/xlink" x="0px" y="0px"
	 viewBox="0 0 396.1 97.7" enable-background="new 0 0 396.1 97.7" xml:space="preserve">
<g>
	<g>
		<g>
			<g>
				<path fill="#3B3C73" d="M93.4,66.2c0,0.7-0.4,1.1-1.1,1.1h-8.9c-0.7,0-1.1-0.4-1.1-1.1V28.7h-4.9c-0.7,0-1.1-0.4-1.1-1.1V20
					c0-0.7,0.4-1.1,1.1-1.1h14.9c0.7,0,1.1,0.4,1.1,1.1V66.2z"/>
				<path fill="#3B3C73" d="M107.4,23.9c0.6,1.2,1.2,1.1,2.3,0.1c3.9-4.4,8.9-6.1,13.8-6.1c11.4,0,18.3,7.1,18.3,18.9v29.4
					c0,0.7-0.4,1.1-1.1,1.1h-8.9c-0.7,0-1.1-0.4-1.1-1.1V37.9c0-6.3-3.3-10.1-8.7-10.1c-7.4,0-11.7,5.4-11.7,15.1v23.3
					c0,0.7-0.4,1.1-1.1,1.1h-8.9c-0.7,0-1.1-0.4-1.1-1.1V20c0-0.7,0.4-1.1,1.1-1.1h5c0.7,0,1.1,0.3,1.2,1L107.4,23.9z"/>
				<path fill="#3B3C73" d="M155.3,23.9c0.6,1.2,1.2,1.1,2.3,0.1c3.9-4.4,8.9-6.1,13.8-6.1c11.4,0,18.3,7.1,18.3,18.9v29.4
					c0,0.7-0.4,1.1-1.1,1.1h-8.9c-0.7,0-1.1-0.4-1.1-1.1V37.9c0-6.3-3.3-10.1-8.7-10.1c-7.4,0-11.7,5.4-11.7,15.1v23.3
					c0,0.7-0.4,1.1-1.1,1.1h-8.9c-0.7,0-1.1-0.4-1.1-1.1V20c0-0.7,0.4-1.1,1.1-1.1h5c0.7,0,1.1,0.3,1.2,1L155.3,23.9z"/>
				<path fill="#3B3C73" d="M238.7,43c0,15.6-8.8,25.4-23,25.4c-14.3,0-23.1-9.8-23.1-25.4c0-15.4,8.8-25.2,23.1-25.2
					C229.9,17.9,238.7,27.6,238.7,43z M203.6,43c0,9.6,4.5,15.3,12.1,15.3c7.4,0,12-5.7,12-15.3c0-9.5-4.6-15.2-12-15.2
					C208.1,27.8,203.6,33.5,203.6,43z"/>
				<path fill="#3B3C73" d="M275.2,43.7c-3,7.7-6,16.3-7.7,22.7c-0.2,0.6-0.6,0.9-1.3,0.9h-10.6c-0.7,0-1.1-0.3-1.3-0.9
					c-1.7-6.4-4.7-14.9-7.7-22.7l-9.9-23.6c-0.3-0.8,0.1-1.3,0.9-1.3h9.3c0.6,0,1,0.3,1.3,0.8l7.1,16.8c2.2,5.9,4,12,4.8,16.5
					c0.2,1.1,1.3,1.1,1.6,0c0.7-4.5,2.5-10.7,4.8-16.5l7.1-16.8c0.3-0.5,0.7-0.8,1.3-0.8h9.3c0.8,0,1.2,0.5,0.9,1.3L275.2,43.7z"/>
				<path fill="#3B3C73" d="M317.9,67.1c-3.6,0.9-7,1.3-10.2,1.3c-15.1,0-23.6-9.8-23.6-25.3c0-15.6,8.6-25.3,23.2-25.3
					c12,0,19.3,6,19.3,15.9c0,7.7-4.7,12.1-14.7,13.6l-15.7,2.4c1.1,5.3,5.1,8.6,11.4,8.6c2.8,0,5.8-0.3,7.9-1l4.4-1.1
					c0.7-0.2,1.2,0.1,1.4,0.8l2,7.5c0.2,0.7-0.1,1.2-0.8,1.4L317.9,67.1z M310.3,38.7c3.5-0.6,5.4-2.2,5.4-4.8c0-4-3.1-6.1-8.5-6.1
					c-6.6,0-11.1,4.1-11.9,13.3L310.3,38.7z"/>
				<path fill="#3B3C73" d="M360.2,37.3c-1.5,2.4-3.1,4.2-4.7,5c-0.5,0.2-0.5,0.6-0.1,0.8c1.9,1.2,3.3,2.6,4.8,5.3L371.2,66
					c0.4,0.7,0.1,1.3-0.8,1.3h-9.9c-0.6,0-1-0.2-1.4-0.7l-9.3-15.1c-0.6-0.8-1-0.8-1.6,0L339,66.6c-0.4,0.5-0.8,0.7-1.4,0.7h-9.9
					c-0.9,0-1.2-0.6-0.8-1.3L338,48.4c1.6-2.6,3-4.2,4.8-5.3c0.2-0.1,0.3-0.2,0.3-0.3c0.1-0.5-0.6-0.6-0.9-0.9c-1.4-1-3-2.7-4.2-4.6
					l-10.8-17.2c-0.4-0.7-0.1-1.3,0.8-1.3h9.8c0.6,0,1,0.2,1.4,0.7l9.1,14.9c0.5,0.8,1.1,0.8,1.6,0l9.1-14.9
					c0.4-0.5,0.8-0.7,1.4-0.7h9.8c0.9,0,1.2,0.6,0.8,1.3L360.2,37.3z"/>
			</g>
		</g>
		<g>
			<polygon fill="#1F95A7" points="13,18.9 13,18.9 13,18.9 			"/>
			<polygon fill="#3B3C73" points="13,67.3 13,67.3 13,67.3 			"/>
			<polygon fill="#1F95A7" points="13.1,26.1 20.5,26.1 13.1,33.5 13.1,38.7 18.2,38.7 25.5,31.3 25.5,38.7 32.8,38.7 32.8,18.8 
				13.1,18.8 			"/>
			<polygon fill="#1F95A7" points="41.7,38.6 46.7,38.6 54.1,31.3 54.1,38.6 61.4,38.6 61.4,18.9 41.7,18.9 41.7,26.2 48.9,26.2 
				41.7,33.3 			"/>
			<polygon fill="#1F95A7" points="61.4,67.3 61.4,47.6 41.7,47.6 41.7,54.9 49,54.9 41.7,62.3 41.7,67.3 47,67.3 54.1,60.1 
				54.1,67.3 			"/>
			<polygon fill="#3B3C73" points="13,47.6 13,54.9 20.4,54.9 13,62.2 13,67.3 18.2,67.3 25.6,60 25.6,67.3 32.9,67.3 32.9,47.6 			
				"/>
		</g>
		<g>
			<g>
				<path fill="#3B3C73" d="M377.3,12.4v1H376v3.8h-1.1v-3.8h-1.3v-1H377.3z M380.3,14.8c0,0.1,0.1,0.2,0.1,0.3
					c0,0.1,0.1,0.2,0.1,0.3c0-0.1,0.1-0.2,0.1-0.3c0-0.1,0.1-0.2,0.1-0.3l1.1-2.2c0.1-0.1,0.1-0.1,0.2-0.2c0,0,0.1,0,0.2,0h0.9v4.8
					h-1v-2.6l0.1-0.7l-1.2,2.5c-0.1,0.2-0.2,0.3-0.4,0.3h-0.2c-0.2,0-0.3-0.1-0.4-0.3l-1.2-2.5l0.1,0.7v2.6h-1v-4.8h0.9
					c0.1,0,0.2,0,0.2,0c0,0,0.1,0.1,0.2,0.2L380.3,14.8z"/>
			</g>
		</g>
	</g>
	<g>
		<path fill="#1F95A7" d="M259.6,75.2c-0.1,0.1-0.1,0.1-0.2,0.2c0,0-0.1,0.1-0.2,0.1c-0.1,0-0.2,0-0.2-0.1s-0.2-0.2-0.3-0.2
			c-0.1-0.1-0.3-0.2-0.4-0.2c-0.2-0.1-0.4-0.1-0.6-0.1c-0.2,0-0.5,0-0.6,0.1c-0.2,0.1-0.3,0.2-0.5,0.3c-0.1,0.1-0.2,0.3-0.3,0.5
			c-0.1,0.2-0.1,0.4-0.1,0.6c0,0.2,0,0.4,0.1,0.5c0.1,0.1,0.2,0.3,0.4,0.4c0.2,0.1,0.3,0.2,0.5,0.3c0.2,0.1,0.4,0.2,0.6,0.3
			c0.2,0.1,0.4,0.2,0.6,0.3s0.4,0.2,0.5,0.4s0.3,0.4,0.4,0.6s0.1,0.5,0.1,0.8c0,0.5-0.1,0.9-0.2,1.3s-0.4,0.8-0.6,1.1
			c-0.3,0.3-0.6,0.5-1,0.7c-0.4,0.2-0.8,0.3-1.3,0.3c-0.3,0-0.5,0-0.7-0.1c-0.2-0.1-0.5-0.1-0.7-0.2c-0.2-0.1-0.4-0.2-0.6-0.4
			s-0.3-0.3-0.5-0.5l0.5-0.7c0-0.1,0.1-0.1,0.1-0.1s0.1-0.1,0.2-0.1c0.1,0,0.2,0,0.3,0.1s0.2,0.2,0.3,0.3c0.1,0.1,0.3,0.2,0.5,0.3
			c0.2,0.1,0.4,0.1,0.7,0.1c0.3,0,0.5,0,0.7-0.1s0.4-0.2,0.5-0.4c0.1-0.2,0.2-0.3,0.3-0.6s0.1-0.5,0.1-0.7c0-0.2,0-0.4-0.1-0.6
			c-0.1-0.1-0.2-0.3-0.4-0.4c-0.2-0.1-0.3-0.2-0.5-0.3s-0.4-0.2-0.6-0.2s-0.4-0.2-0.6-0.3c-0.2-0.1-0.4-0.2-0.5-0.4
			c-0.2-0.2-0.3-0.4-0.4-0.6c-0.1-0.2-0.1-0.5-0.1-0.9c0-0.4,0.1-0.8,0.2-1.1c0.1-0.4,0.3-0.7,0.6-1c0.3-0.3,0.6-0.5,0.9-0.7
			c0.4-0.2,0.8-0.3,1.2-0.3c0.2,0,0.5,0,0.7,0.1c0.2,0,0.4,0.1,0.6,0.2c0.2,0.1,0.4,0.2,0.5,0.3c0.2,0.1,0.3,0.3,0.4,0.4L259.6,75.2
			z"/>
		<path fill="#1F95A7" d="M263.1,76.4l-0.7,6.7h-1.3l0.7-6.7H263.1z M263.5,74.3c0,0.1,0,0.2-0.1,0.4c0,0.1-0.1,0.2-0.2,0.3
			c-0.1,0.1-0.2,0.2-0.3,0.2c-0.1,0.1-0.2,0.1-0.3,0.1c-0.1,0-0.2,0-0.3-0.1c-0.1,0-0.2-0.1-0.3-0.2c-0.1-0.1-0.1-0.2-0.2-0.3
			c0-0.1-0.1-0.2-0.1-0.4s0-0.2,0.1-0.4s0.1-0.2,0.2-0.3s0.2-0.2,0.3-0.2c0.1-0.1,0.2-0.1,0.3-0.1c0.1,0,0.2,0,0.3,0.1
			c0.1,0,0.2,0.1,0.3,0.2s0.1,0.2,0.2,0.3C263.5,74.1,263.5,74.2,263.5,74.3z"/>
		<path fill="#1F95A7" d="M264.5,83l0.7-6.7h0.7c0.1,0,0.3,0,0.3,0.1c0.1,0.1,0.1,0.2,0.1,0.4l-0.1,0.9c0.3-0.5,0.6-0.9,1-1.1
			c0.3-0.3,0.7-0.4,1.1-0.4c0.4,0,0.7,0.1,0.9,0.4s0.3,0.7,0.3,1.3c0.3-0.6,0.6-1,1-1.3c0.4-0.3,0.8-0.4,1.2-0.4
			c0.5,0,0.9,0.2,1.2,0.7c0.2,0.4,0.3,1.1,0.2,1.9l-0.5,4.3h-1.3l0.5-4.3c0-0.2,0-0.4,0-0.6c0-0.2,0-0.3-0.1-0.4s-0.1-0.2-0.2-0.2
			c-0.1-0.1-0.2-0.1-0.3-0.1c-0.2,0-0.3,0-0.5,0.1c-0.2,0.1-0.3,0.2-0.5,0.4s-0.3,0.4-0.4,0.6c-0.1,0.3-0.2,0.5-0.3,0.9l-0.4,3.6
			H268l0.5-4.3c0-0.2,0-0.4,0-0.6c0-0.2,0-0.3-0.1-0.4c0-0.1-0.1-0.2-0.2-0.2s-0.2-0.1-0.3-0.1c-0.2,0-0.3,0-0.5,0.1
			c-0.2,0.1-0.3,0.2-0.5,0.4s-0.3,0.4-0.4,0.7s-0.2,0.6-0.3,0.9l-0.4,3.5H264.5z"/>
		<path fill="#1F95A7" d="M274.5,85.3l1-8.9h0.7c0.1,0,0.3,0,0.3,0.1c0.1,0.1,0.1,0.2,0.1,0.4l-0.1,1.2c0.2-0.3,0.3-0.5,0.5-0.7
			c0.2-0.2,0.4-0.4,0.6-0.5c0.2-0.2,0.4-0.3,0.6-0.3c0.2-0.1,0.4-0.1,0.6-0.1c0.3,0,0.5,0.1,0.7,0.2s0.4,0.3,0.5,0.5
			s0.3,0.5,0.3,0.8c0.1,0.3,0.1,0.7,0.1,1.1c0,0.4,0,0.7-0.1,1.1s-0.2,0.7-0.3,1c-0.1,0.3-0.3,0.6-0.5,0.9c-0.2,0.3-0.4,0.5-0.6,0.7
			c-0.2,0.2-0.5,0.4-0.7,0.5c-0.3,0.1-0.5,0.2-0.8,0.2c-0.3,0-0.6-0.1-0.8-0.2s-0.4-0.3-0.6-0.5l-0.3,2.8H274.5z M278.3,77.4
			c-0.2,0-0.4,0.1-0.5,0.2c-0.2,0.1-0.4,0.3-0.5,0.5c-0.2,0.2-0.3,0.5-0.5,0.8c-0.1,0.3-0.3,0.6-0.4,1l-0.2,1.7
			c0.1,0.2,0.3,0.3,0.5,0.4c0.2,0.1,0.4,0.1,0.6,0.1c0.2,0,0.4,0,0.5-0.1c0.2-0.1,0.3-0.2,0.5-0.4c0.1-0.2,0.3-0.3,0.4-0.5
			c0.1-0.2,0.2-0.4,0.3-0.7s0.1-0.5,0.2-0.7c0-0.3,0.1-0.5,0.1-0.8c0-0.5-0.1-0.9-0.2-1.1S278.6,77.4,278.3,77.4z"/>
		<path fill="#1F95A7" d="M281.9,83l1.1-9.7h1.3l-1.1,9.7H281.9z"/>
		<path fill="#1F95A7" d="M287.4,76.4l-0.7,6.7h-1.3l0.7-6.7H287.4z M287.8,74.3c0,0.1,0,0.2-0.1,0.4c0,0.1-0.1,0.2-0.2,0.3
			c-0.1,0.1-0.2,0.2-0.3,0.2c-0.1,0.1-0.2,0.1-0.3,0.1c-0.1,0-0.2,0-0.3-0.1c-0.1,0-0.2-0.1-0.3-0.2c-0.1-0.1-0.1-0.2-0.2-0.3
			c0-0.1-0.1-0.2-0.1-0.4s0-0.2,0.1-0.4s0.1-0.2,0.2-0.3s0.2-0.2,0.3-0.2c0.1-0.1,0.2-0.1,0.3-0.1c0.1,0,0.2,0,0.3,0.1
			c0.1,0,0.2,0.1,0.3,0.2s0.1,0.2,0.2,0.3C287.8,74.1,287.8,74.2,287.8,74.3z"/>
		<path fill="#1F95A7" d="M291.2,76.4h3.5l-0.7,6.6h-1.3l0.6-5.6h-2.2l-0.6,5.3l-0.3,1.3c-0.1,0.2-0.1,0.3-0.2,0.4s-0.2,0.2-0.4,0.2
			H289l0.8-7.2l-0.5-0.1c-0.1,0-0.2-0.1-0.2-0.1S289,77.1,289,77l0.1-0.6h0.9l0-0.3c0-0.4,0.1-0.8,0.3-1.1c0.2-0.3,0.4-0.6,0.6-0.9
			s0.6-0.4,0.9-0.6c0.4-0.1,0.8-0.2,1.3-0.2c0.1,0,0.2,0,0.2,0c0.1,0,0.2,0,0.2,0c0.1,0,0.2,0,0.2,0c0.1,0,0.1,0,0.2,0.1l-0.1,0.7
			c0,0.1-0.1,0.1-0.2,0.2c-0.1,0-0.2,0-0.4,0c-0.4,0-0.7,0-0.9,0.1s-0.5,0.2-0.6,0.3c-0.2,0.2-0.3,0.3-0.4,0.6
			c-0.1,0.2-0.2,0.5-0.2,0.8L291.2,76.4z"/>
		<path fill="#1F95A7" d="M301.3,77.9c0,0.3-0.1,0.6-0.2,0.8c-0.1,0.2-0.3,0.5-0.6,0.7c-0.3,0.2-0.7,0.4-1.2,0.5
			c-0.5,0.1-1.1,0.3-1.9,0.3v0.2c0,0.6,0.1,1,0.3,1.3c0.2,0.3,0.6,0.4,1,0.4c0.3,0,0.5,0,0.7-0.1c0.2-0.1,0.3-0.2,0.5-0.3
			c0.1-0.1,0.2-0.2,0.3-0.3c0.1-0.1,0.2-0.1,0.3-0.1c0.1,0,0.2,0,0.2,0.1l0.3,0.4c-0.2,0.2-0.4,0.4-0.6,0.6
			c-0.2,0.2-0.4,0.3-0.6,0.4s-0.4,0.2-0.7,0.2s-0.5,0.1-0.8,0.1c-0.4,0-0.7-0.1-1-0.2c-0.3-0.1-0.5-0.3-0.7-0.6s-0.4-0.5-0.5-0.9
			c-0.1-0.3-0.2-0.7-0.2-1.1c0-0.4,0-0.7,0.1-1s0.2-0.7,0.3-1c0.1-0.3,0.3-0.6,0.5-0.8c0.2-0.3,0.4-0.5,0.6-0.7
			c0.2-0.2,0.5-0.3,0.8-0.4c0.3-0.1,0.6-0.2,0.9-0.2c0.3,0,0.6,0,0.8,0.1c0.2,0.1,0.4,0.2,0.6,0.4s0.3,0.3,0.4,0.5
			C301.2,77.5,301.3,77.7,301.3,77.9z M299.3,77.3c-0.2,0-0.4,0-0.6,0.2c-0.2,0.1-0.4,0.2-0.5,0.4s-0.3,0.4-0.4,0.6
			c-0.1,0.2-0.2,0.5-0.3,0.8c0.6-0.1,1-0.2,1.3-0.3c0.3-0.1,0.6-0.2,0.8-0.3c0.2-0.1,0.3-0.2,0.4-0.4c0.1-0.1,0.1-0.3,0.1-0.4
			c0-0.1,0-0.1,0-0.2c0-0.1-0.1-0.1-0.1-0.2c-0.1-0.1-0.1-0.1-0.2-0.2C299.6,77.3,299.4,77.3,299.3,77.3z"/>
		<path fill="#1F95A7" d="M306.9,83c-0.2,0-0.3,0-0.3-0.1c-0.1-0.1-0.1-0.2-0.1-0.3l0.1-1.1c-0.2,0.3-0.3,0.5-0.5,0.7
			s-0.4,0.4-0.6,0.5c-0.2,0.1-0.4,0.3-0.6,0.3c-0.2,0.1-0.4,0.1-0.6,0.1c-0.5,0-0.9-0.2-1.2-0.6s-0.5-1-0.5-1.9c0-0.4,0-0.7,0.1-1.1
			c0.1-0.4,0.2-0.7,0.3-1c0.1-0.3,0.3-0.6,0.5-0.9c0.2-0.3,0.4-0.5,0.6-0.7c0.2-0.2,0.5-0.4,0.7-0.5s0.5-0.2,0.8-0.2
			c0.3,0,0.6,0.1,0.8,0.2c0.2,0.1,0.4,0.3,0.6,0.5l0.4-3.6h1.3l-1.1,9.7H306.9z M304.8,82c0.2,0,0.4-0.1,0.5-0.2s0.4-0.3,0.5-0.5
			c0.2-0.2,0.3-0.5,0.5-0.8c0.1-0.3,0.3-0.6,0.4-1l0.2-1.7c-0.1-0.2-0.3-0.3-0.5-0.4c-0.2-0.1-0.4-0.1-0.6-0.1
			c-0.3,0-0.6,0.1-0.8,0.3c-0.2,0.2-0.4,0.4-0.6,0.7c-0.2,0.3-0.3,0.6-0.4,1c-0.1,0.4-0.1,0.8-0.1,1.1c0,0.5,0.1,0.9,0.2,1.1
			C304.3,81.9,304.5,82,304.8,82z"/>
		<path fill="#1F95A7" d="M314.7,83h-1.4l1.1-9.4h1.4L314.7,83z"/>
		<path fill="#1F95A7" d="M317,83l0.7-6.7h0.7c0.1,0,0.3,0,0.3,0.1c0.1,0.1,0.1,0.2,0.1,0.4l-0.1,1.1c0.3-0.5,0.7-0.9,1.1-1.2
			c0.4-0.3,0.8-0.4,1.2-0.4c0.3,0,0.5,0.1,0.7,0.2c0.2,0.1,0.4,0.3,0.5,0.5s0.2,0.5,0.3,0.8c0,0.3,0.1,0.7,0,1.1l-0.5,4.3h-1.3
			l0.5-4.3c0.1-0.5,0-0.8-0.1-1c-0.1-0.2-0.3-0.3-0.6-0.3c-0.2,0-0.4,0.1-0.6,0.2c-0.2,0.1-0.4,0.3-0.5,0.5s-0.3,0.4-0.5,0.7
			s-0.3,0.6-0.4,0.9l-0.3,3.3H317z"/>
		<path fill="#1F95A7" d="M324.1,83l0.7-6.7h0.7c0.1,0,0.3,0,0.3,0.1c0.1,0.1,0.1,0.2,0.1,0.4l-0.1,1.1c0.3-0.5,0.7-0.9,1.1-1.2
			c0.4-0.3,0.8-0.4,1.2-0.4c0.3,0,0.5,0.1,0.7,0.2c0.2,0.1,0.4,0.3,0.5,0.5s0.2,0.5,0.3,0.8c0,0.3,0.1,0.7,0,1.1l-0.5,4.3h-1.3
			l0.5-4.3c0.1-0.5,0-0.8-0.1-1c-0.1-0.2-0.3-0.3-0.6-0.3c-0.2,0-0.4,0.1-0.6,0.2c-0.2,0.1-0.4,0.3-0.5,0.5s-0.3,0.4-0.5,0.7
			s-0.3,0.6-0.4,0.9l-0.3,3.3H324.1z"/>
		<path fill="#1F95A7" d="M333.6,83.1c-0.3,0-0.7-0.1-0.9-0.2c-0.3-0.1-0.5-0.3-0.7-0.5c-0.2-0.2-0.4-0.5-0.5-0.9s-0.2-0.7-0.2-1.2
			c0-0.6,0.1-1.1,0.3-1.6c0.2-0.5,0.4-0.9,0.7-1.3c0.3-0.4,0.6-0.7,1-0.9c0.4-0.2,0.8-0.3,1.3-0.3c0.3,0,0.7,0.1,0.9,0.2
			c0.3,0.1,0.5,0.3,0.7,0.5s0.4,0.5,0.5,0.9s0.2,0.7,0.2,1.2c0,0.4,0,0.7-0.1,1.1c-0.1,0.3-0.2,0.7-0.3,1c-0.1,0.3-0.3,0.6-0.5,0.8
			c-0.2,0.2-0.4,0.5-0.7,0.6c-0.2,0.2-0.5,0.3-0.8,0.4C334.2,83.1,333.9,83.1,333.6,83.1z M333.7,82c0.3,0,0.5-0.1,0.7-0.2
			c0.2-0.2,0.4-0.4,0.6-0.7s0.3-0.6,0.4-1s0.1-0.7,0.1-1.1c0-0.6-0.1-1-0.3-1.3c-0.2-0.3-0.5-0.4-0.9-0.4c-0.3,0-0.5,0.1-0.7,0.2
			c-0.2,0.2-0.4,0.4-0.6,0.6s-0.3,0.6-0.4,1c-0.1,0.4-0.1,0.7-0.1,1.1C332.6,81.5,333,82,333.7,82z"/>
		<path fill="#1F95A7" d="M338.1,76.4h1.1c0.1,0,0.2,0,0.2,0.1s0.1,0.1,0.1,0.2l0.8,3.9c0,0.2,0.1,0.4,0.1,0.6c0,0.2,0,0.4,0,0.6
			c0.1-0.2,0.1-0.4,0.2-0.6c0.1-0.2,0.1-0.4,0.2-0.6l1.7-3.9c0-0.1,0.1-0.1,0.1-0.2c0.1-0.1,0.1-0.1,0.2-0.1h1l-3.1,6.7h-1.1
			L338.1,76.4z"/>
		<path fill="#1F95A7" d="M349.1,83h-0.7c-0.2,0-0.3,0-0.3-0.1c-0.1-0.1-0.1-0.2-0.1-0.3l0.1-1.1c-0.1,0.3-0.3,0.5-0.5,0.7
			c-0.2,0.2-0.3,0.4-0.5,0.5s-0.4,0.3-0.6,0.3c-0.2,0.1-0.4,0.1-0.6,0.1c-0.2,0-0.5-0.1-0.7-0.2s-0.4-0.3-0.5-0.5
			c-0.1-0.2-0.3-0.4-0.3-0.7c-0.1-0.3-0.1-0.6-0.1-1c0-0.4,0-0.8,0.1-1.2c0.1-0.4,0.2-0.7,0.4-1.1s0.4-0.6,0.6-0.9
			c0.2-0.3,0.5-0.5,0.8-0.7c0.3-0.2,0.6-0.4,1-0.5c0.3-0.1,0.7-0.2,1.1-0.2c0.3,0,0.5,0,0.8,0.1c0.3,0,0.5,0.1,0.8,0.2L349.1,83z
			 M346.4,82c0.2,0,0.4-0.1,0.5-0.2c0.2-0.1,0.3-0.3,0.5-0.5s0.3-0.5,0.4-0.8c0.1-0.3,0.3-0.6,0.4-1l0.2-2.2c-0.1,0-0.1,0-0.2,0
			c-0.1,0-0.1,0-0.2,0c-0.3,0-0.7,0.1-1,0.3s-0.6,0.4-0.8,0.7c-0.2,0.3-0.4,0.6-0.5,1s-0.2,0.8-0.2,1.2c0,0.5,0.1,0.9,0.2,1.1
			S346.1,82,346.4,82z"/>
		<path fill="#1F95A7" d="M351.7,81.7c0,0,0-0.1,0-0.1c0,0,0-0.1,0-0.2c0-0.1,0-0.2,0-0.3s0-0.3,0.1-0.5l0.4-3.2h-0.6
			c-0.1,0-0.1,0-0.2-0.1c0,0-0.1-0.1-0.1-0.2l0.1-0.5l0.9-0.2l0.5-1.9c0-0.1,0.1-0.1,0.1-0.2s0.1-0.1,0.2-0.1h0.7l-0.3,2.2h4l-0.1,1
			h0l-0.6,5.6h-1.3l0.6-5.6h-2.7l-0.4,3.1c0,0.2,0,0.3,0,0.4c0,0.1,0,0.2,0,0.3s0,0.1,0,0.1c0,0,0,0,0,0.1c0,0.2,0,0.3,0.1,0.4
			c0.1,0.1,0.2,0.2,0.4,0.2c0.1,0,0.2,0,0.2,0s0.1-0.1,0.2-0.1c0.1,0,0.1-0.1,0.1-0.1c0,0,0.1,0,0.1,0c0,0,0.1,0,0.1,0
			s0,0.1,0.1,0.1l0.3,0.7c-0.2,0.2-0.4,0.3-0.7,0.4c-0.3,0.1-0.5,0.2-0.8,0.2c-0.4,0-0.8-0.1-1-0.4
			C351.9,82.5,351.7,82.2,351.7,81.7z M358.1,74.3c0,0.1,0,0.2-0.1,0.4c0,0.1-0.1,0.2-0.2,0.3c-0.1,0.1-0.2,0.2-0.3,0.2
			c-0.1,0.1-0.2,0.1-0.3,0.1c-0.1,0-0.2,0-0.3-0.1c-0.1,0-0.2-0.1-0.3-0.2c-0.1-0.1-0.1-0.2-0.2-0.3c0-0.1-0.1-0.2-0.1-0.4
			s0-0.2,0.1-0.4s0.1-0.2,0.2-0.3s0.2-0.2,0.3-0.2c0.1-0.1,0.2-0.1,0.3-0.1c0.1,0,0.2,0,0.3,0.1c0.1,0,0.2,0.1,0.3,0.2
			s0.1,0.2,0.2,0.3C358.1,74.1,358.1,74.2,358.1,74.3z"/>
		<path fill="#1F95A7" d="M361.4,83.1c-0.3,0-0.7-0.1-0.9-0.2c-0.3-0.1-0.5-0.3-0.7-0.5c-0.2-0.2-0.4-0.5-0.5-0.9s-0.2-0.7-0.2-1.2
			c0-0.6,0.1-1.1,0.3-1.6c0.2-0.5,0.4-0.9,0.7-1.3c0.3-0.4,0.6-0.7,1-0.9c0.4-0.2,0.8-0.3,1.3-0.3c0.3,0,0.7,0.1,0.9,0.2
			c0.3,0.1,0.5,0.3,0.7,0.5s0.4,0.5,0.5,0.9s0.2,0.7,0.2,1.2c0,0.4,0,0.7-0.1,1.1c-0.1,0.3-0.2,0.7-0.3,1c-0.1,0.3-0.3,0.6-0.5,0.8
			c-0.2,0.2-0.4,0.5-0.7,0.6c-0.2,0.2-0.5,0.3-0.8,0.4C361.9,83.1,361.6,83.1,361.4,83.1z M361.5,82c0.3,0,0.5-0.1,0.7-0.2
			c0.2-0.2,0.4-0.4,0.6-0.7s0.3-0.6,0.4-1s0.1-0.7,0.1-1.1c0-0.6-0.1-1-0.3-1.3c-0.2-0.3-0.5-0.4-0.9-0.4c-0.3,0-0.5,0.1-0.7,0.2
			c-0.2,0.2-0.4,0.4-0.6,0.6s-0.3,0.6-0.4,1c-0.1,0.4-0.1,0.7-0.1,1.1C360.3,81.5,360.7,82,361.5,82z"/>
		<path fill="#1F95A7" d="M365.9,83l0.7-6.7h0.7c0.1,0,0.3,0,0.3,0.1c0.1,0.1,0.1,0.2,0.1,0.4l-0.1,1.1c0.3-0.5,0.7-0.9,1.1-1.2
			c0.4-0.3,0.8-0.4,1.2-0.4c0.3,0,0.5,0.1,0.7,0.2c0.2,0.1,0.4,0.3,0.5,0.5s0.2,0.5,0.3,0.8c0,0.3,0.1,0.7,0,1.1L371,83h-1.3
			l0.5-4.3c0.1-0.5,0-0.8-0.1-1c-0.1-0.2-0.3-0.3-0.6-0.3c-0.2,0-0.4,0.1-0.6,0.2c-0.2,0.1-0.4,0.3-0.5,0.5s-0.3,0.4-0.5,0.7
			s-0.3,0.6-0.4,0.9l-0.3,3.3H365.9z"/>
	</g>
</g>
</svg>
